<svg xmlns="http://www.w3.org/2000/svg" viewBox="0 0 151.3 38.3" enable-background="new 0 0 151.3 38.3"><path fill="#fff" d="M0 .3h7.8c2.2 0 3.9 1.7 3.9 3.9v11.9c0 1.8-.8 2.5-1.7 3 .9.4 1.7 1.2 1.7 3.5V34c0 2.2-1.7 3.9-3.9 3.9H0V.3zm3.9 16.9h3.9v-13H3.9v13zm0 16.9h3.9v-13H3.9v13zM15.6 5.9c0-3.2 2.6-5.9 5.9-5.9 3.2 0 5.9 2.6 5.9 5.9V38h-3.9V21.1h-3.9V38h-3.9V5.9zm3.9 11.3h3.9v-13h-3.9v13zM31.2.3h3.7c1.4 7.9 3.4 15.7 4.5 24.1h.1c-.2-3.2-.5-9.9-.5-13.2V.3h3.9V38h-3.7c-1.4-7.9-3.4-15.7-4.5-24.1h-.1c.2 3.2.5 9.9.5 13.2V38h-3.9V.3zM46.9.3h7.8c2.2 0 3.9 1.7 3.9 3.9v29.9c0 2.2-1.7 3.9-3.9 3.9h-7.8V.3zm3.9 33.8h3.9V4.2h-3.9v29.9z"/><path fill="#D75E27" d="M62.5.3h11.7v3.9l-7.7 29.9h3.8v-7.8h3.9V38H62.5v-3.9l7.7-29.9h-3.8V12h-3.9V.3zM78.1 5.9C78.1 2.7 80.7 0 84 0c3.2 0 5.9 2.6 5.9 5.9v26.6c0 3.2-2.6 5.9-5.9 5.9-3.2 0-5.9-2.6-5.9-5.9V5.9zm7.8-1.7H82v29.9h3.9V4.2zM93.7 5.9c0-3.2 2.6-5.9 5.9-5.9 3.2 0 5.9 2.6 5.9 5.9v26.6c0 3.2-2.6 5.9-5.9 5.9-3.2 0-5.9-2.6-5.9-5.9V5.9zm7.8-1.7h-3.9v29.9h3.9V4.2zM109.3 5.9c0-3.2 2.6-5.9 5.9-5.9 3.2 0 5.9 2.6 5.9 5.9v4.3h-3.9v-6h-3.9v29.9h3.9v-13h-1.7v-3.9h5.6v15.2c0 3.2-2.6 5.9-5.9 5.9-3.2 0-5.9-2.6-5.9-5.9V5.9zM124.9.3h3.9v33.8h3.9v-7.8h3.9V38h-11.7V.3zM151.3 4.2h-7.8v13h5.9v3.9h-5.9v13h7.8V38h-7.8c-2.2 0-3.9-1.7-3.9-3.9V4.2c0-2.2 1.7-3.9 3.9-3.9h7.8v3.9z"/></svg>